HIERARCHY
ROOT Hips
{
	OFFSET 0.00000 0.00000 0.00000
	CHANNELS 6 Xposition Yposition Zposition Zrotation Yrotation Xrotation 
	JOINT LHipJoint
	{
		OFFSET 0 0 0
		CHANNELS 3 Zrotation Yrotation Xrotation
		JOINT LeftUpLeg
		{
			OFFSET 1.37590 -1.78394 0.89329
			CHANNELS 3 Zrotation Yrotation Xrotation
			JOINT LeftLeg
			{
				OFFSET 2.47928 -6.81178 0.00000
				CHANNELS 3 Zrotation Yrotation Xrotation
				JOINT LeftFoot
				{
					OFFSET 2.63345 -7.23535 0.00000
					CHANNELS 3 Zrotation Yrotation Xrotation
					JOINT LeftToeBase
					{
						OFFSET 0.23938 -0.65768 2.27012
						CHANNELS 3 Zrotation Yrotation Xrotation
						End Site
						{
							OFFSET 0.00000 -0.00000 1.18363
						}
					}
				}
			}
		}
	}
	JOINT RHipJoint
	{
		OFFSET 0 0 0
		CHANNELS 3 Zrotation Yrotation Xrotation
		JOINT RightUpLeg
		{
			OFFSET -1.33617 -1.78394 0.89329
			CHANNELS 3 Zrotation Yrotation Xrotation
			JOINT RightLeg
			{
				OFFSET -2.56922 -7.05888 0.00000
				CHANNELS 3 Zrotation Yrotation Xrotation
				JOINT RightFoot
				{
					OFFSET -2.56568 -7.04915 0.00000
					CHANNELS 3 Zrotation Yrotation Xrotation
					JOINT RightToeBase
					{
						OFFSET -0.27533 -0.75646 2.18105
						CHANNELS 3 Zrotation Yrotation Xrotation
						End Site
						{
							OFFSET -0.00000 -0.00000 1.15233
						}
					}
				}
			}
		}
	}
	JOINT LowerBack
	{
		OFFSET 0 0 0
		CHANNELS 3 Zrotation Yrotation Xrotation
		JOINT Spine
		{
			OFFSET 0.06190 2.15152 -0.00935
			CHANNELS 3 Zrotation Yrotation Xrotation
			JOINT Spine1
			{
				OFFSET 0.06334 2.15332 0.00872
				CHANNELS 3 Zrotation Yrotation Xrotation
				JOINT Neck
				{
					OFFSET 0 0 0
					CHANNELS 3 Zrotation Yrotation Xrotation
					JOINT Neck1
					{
						OFFSET -0.04202 1.66908 0.23524
						CHANNELS 3 Zrotation Yrotation Xrotation
						JOINT Head
						{
							OFFSET 0.07510 1.69357 -0.24440
							CHANNELS 3 Zrotation Yrotation Xrotation
							End Site
							{
								OFFSET 0.02556 1.71719 -0.11000
							}
						}
					}
				}
				JOINT LeftShoulder
				{
					OFFSET 0 0 0
					CHANNELS 3 Zrotation Yrotation Xrotation
					JOINT LeftArm
					{
						OFFSET 3.67168 1.26306 -0.41342
						CHANNELS 3 Zrotation Yrotation Xrotation
						JOINT LeftForeArm
						{
							OFFSET 4.68510 -0.00000 -0.00000
							CHANNELS 3 Zrotation Yrotation Xrotation
							JOINT LeftHand
							{
								OFFSET 3.39626 -0.00000 -0.00000
								CHANNELS 3 Zrotation Yrotation Xrotation
								JOINT LeftFingerBase
								{
									OFFSET 0 0 0
									CHANNELS 3 Zrotation Yrotation Xrotation
									JOINT LeftHandIndex1
									{
										OFFSET 0.48608 -0.00000 -0.00000
										CHANNELS 3 Zrotation Yrotation Xrotation
										End Site
										{
											OFFSET 0.39189 -0.00000 -0.00000
										}
									}
								}
								JOINT LThumb
								{
									OFFSET 0 0 0
									CHANNELS 3 Zrotation Yrotation Xrotation
									End Site
									{
										OFFSET 0.39787 -0.00000 0.39787
									}
								}
							}
						}
					}
				}
				JOINT RightShoulder
				{
					OFFSET 0 0 0
					CHANNELS 3 Zrotation Yrotation Xrotation
					JOINT RightArm
					{
						OFFSET -3.04136 1.42992 -0.76390
						CHANNELS 3 Zrotation Yrotation Xrotation
						JOINT RightForeArm
						{
							OFFSET -5.55576 -0.00000 -0.00000
							CHANNELS 3 Zrotation Yrotation Xrotation
							JOINT RightHand
							{
								OFFSET -3.32774 -0.00000 -0.00000
								CHANNELS 3 Zrotation Yrotation Xrotation
								JOINT RightFingerBase
								{
									OFFSET 0 0 0
									CHANNELS 3 Zrotation Yrotation Xrotation
									JOINT RightHandIndex1
									{
										OFFSET -0.50763 -0.00000 -0.00000
										CHANNELS 3 Zrotation Yrotation Xrotation
										End Site
										{
											OFFSET -0.40926 -0.00000 -0.00000
										}
									}
								}
								JOINT RThumb
								{
									OFFSET 0 0 0
									CHANNELS 3 Zrotation Yrotation Xrotation
									End Site
									{
										OFFSET -0.41551 -0.00000 0.41551
									}
								}
							}
						}
					}
				}
			}
		}
	}
}
MOTION
Frames: 5
Frame Time: .0083333
2.3757 17.6612 3.5866 -139.8540 -77.5263 147.8720 0.0000 0.0000 0.0000 -6.2615 -10.8005 -28.9052 1.1143 6.7062 18.8477 -0.4390 11.6748 -5.1852 0.1755 -2.6987 -7.4411 0.0000 0.0000 0.0000 30.8107 4.1059 6.0806 -1.8743 -8.5993 24.5496 -0.4931 -0.5318 -13.4693 -0.4702 4.3979 -12.1990 7.8450 3.3469 -2.3210 2.8035 4.3256 -4.1984 -1.4579 1.9029 -2.6924 -5.0646 -3.9111 -14.1920 6.9199 -5.5611 14.8331 2.4964 -2.3801 7.2216 -0.0000 -0.0000 0.0000 -80.5469 2.3953 -26.1771 35.0313 -44.8344 -14.8354 -0.0000 0.0000 -10.6677 25.3284 23.4592 10.6706 -7.1250 0.0000 -0.0000 -4.1793 55.5777 -1.0864 -0.0000 -0.0000 0.0000 73.2392 21.2167 20.5760 -35.2474 44.9880 -14.9880 0.0000 -0.0000 -0.2576 -21.7388 -23.9463 9.1929 7.1250 -0.0000 -0.0000 8.1517 -55.3475 -2.0808
2.1914 17.6707 3.5923 -141.1910 -77.8433 149.0430 0.0000 0.0000 0.0000 -7.0711 -10.7223 -28.5436 1.1785 6.8901 19.3903 -0.4213 11.4239 -4.7222 0.1190 -2.2236 -6.1240 0.0000 0.0000 0.0000 30.0959 3.8983 5.6296 -2.1282 -9.1282 26.1972 -0.4214 -0.6141 -12.4999 -0.5083 4.5702 -12.6867 7.4659 3.2776 -2.3544 2.6491 4.2352 -4.1400 -1.4077 1.8746 -2.6318 -5.1106 -3.9357 -14.1541 7.0535 -5.6074 14.7664 2.5429 -2.3951 7.2018 -0.0000 0.0000 0.0000 -81.1164 2.1984 -26.4027 33.1414 -43.4384 -13.5192 -0.0000 0.0000 -10.3812 25.2377 23.7583 10.7527 -7.1250 0.0000 -0.0000 -4.3786 55.8755 -1.1699 -0.0000 0.0000 0.0000 73.7781 20.6226 20.6089 -34.8181 44.6818 -14.6853 0.0000 -0.0000 -0.1887 -21.9605 -23.9909 9.3107 7.1250 -0.0000 -0.0000 7.9378 -55.4385 -2.0432
2.0071 17.6805 3.5985 -142.0850 -78.1299 149.7490 0.0000 0.0000 0.0000 -7.7882 -10.5740 -28.1420 1.2446 7.0737 19.9339 -0.3932 11.0358 -4.3290 0.0665 -1.6644 -4.5790 0.0000 0.0000 0.0000 29.4535 3.6156 5.0503 -2.4204 -9.6917 27.9841 -0.3381 -0.7736 -11.2919 -0.5187 4.6160 -12.8164 7.1957 3.1957 -2.3505 2.5254 4.1303 -4.0748 -1.3871 1.8350 -2.5814 -5.1467 -3.9547 -14.1155 7.1667 -5.6436 14.6928 2.5822 -2.4066 7.1782 0.0000 0.0000 0.0000 -81.6530 2.0422 -26.4661 31.2082 -41.9068 -12.2087 -0.0000 0.0000 -9.9413 25.1096 24.1340 10.8472 -7.1250 0.0000 -0.0000 -4.6491 56.2454 -1.2841 0.0000 0.0000 0.0000 74.3179 19.9708 20.6815 -34.3285 44.3267 -14.3421 0.0000 -0.0000 -0.1131 -22.1437 -24.0272 9.4082 7.1250 -0.0000 -0.0000 7.7604 -55.5133 -2.0113
1.8235 17.6898 3.6054 -142.5730 -78.3891 150.0340 0.0000 0.0000 0.0000 -8.4192 -10.3770 -27.7073 1.3126 7.2570 20.4789 -0.3601 10.5664 -4.0480 0.0276 -1.0726 -2.9487 0.0000 0.0000 0.0000 28.8780 3.2876 4.3431 -2.7519 -10.2822 29.8955 -0.2459 -1.0699 -9.8188 -0.4970 4.5197 -12.5435 7.0158 3.1019 -2.3202 2.4329 4.0104 -4.0012 -1.3851 1.7850 -2.5347 -5.1618 -3.9638 -14.0857 7.2489 -5.6642 14.6177 2.6095 -2.4117 7.1531 0.0000 -0.0000 0.0000 -82.1673 1.9226 -26.3527 29.2728 -40.2618 -10.9366 -0.0000 0.0000 -9.3416 24.9356 24.6041 10.9555 -7.1250 0.0000 -0.0000 -5.0103 56.7033 -1.4398 0.0000 -0.0000 0.0000 74.8426 19.2806 20.8118 -33.7810 43.9218 -13.9609 0.0000 -0.0000 -0.0405 -22.2855 -24.0802 9.4931 7.1250 -0.0000 -0.0000 7.6327 -55.5971 -1.9935
1.6411 17.6980 3.6129 -142.8180 -78.6309 150.0640 0.0000 0.0000 0.0000 -8.9989 -10.1575 -27.2260 1.3796 7.4325 21.0031 -0.3254 10.0532 -3.9144 0.0061 -0.5033 -1.3829 0.0000 0.0000 0.0000 28.3394 2.9471 3.5249 -3.1198 -10.8865 31.8982 -0.1485 -1.5854 -8.0407 -0.4496 4.3016 -11.9269 6.8844 2.9981 -2.2643 2.3629 3.8787 -3.9233 -1.3879 1.7274 -2.4975 -5.1550 -3.9622 -14.0637 7.3015 -5.6693 14.5501 2.6251 -2.4106 7.1292 0.0000 -0.0000 0.0000 -82.6621 1.8565 -26.0322 27.3723 -38.5319 -9.7302 -0.0000 0.0000 -8.6083 24.7453 25.1635 11.0882 -7.1250 0.0000 -0.0000 -5.4339 57.2491 -1.6337 0.0000 -0.0000 0.0000 75.3447 18.5616 21.0076 -33.1727 43.4623 -13.5407 0.0000 0.0000 0.0278 -22.3530 -24.1472 9.5489 7.1250 -0.0000 -0.0000 7.5887 -55.6803 -1.9972
